<svg 
    xmlns="http://www.w3.org/2000/svg"
    xmlns:xlink="http://www.w3.org/1999/xlink"
    width="420px" height="420px"
>
    <path 
        fill-rule="evenodd"
        fill="rgb(136, 136, 136)"
        d="M377.152,136.17 C371.839,154.544 363.593,170.583 352.416,184.128 C341.236,197.676 328.149,207.836 313.153,214.608 C298.154,221.381 281.913,224.619 264.427,224.320 C248.378,224.21 234.238,220.611 222.10,214.85 C209.780,207.563 200.96,198.149 192.958,185.846 C185.819,173.545 181.695,159.426 180.589,143.487 C179.370,127.152 181.308,109.720 186.400,91.192 C191.489,72.665 199.681,56.379 210.970,42.334 C222.259,28.289 235.512,17.781 250.731,10.808 C265.947,3.836 282.412,0.498 300.121,0.797 C316.390,1.96 330.611,4.558 342.787,11.181 C354.960,17.807 364.535,27.318 371.507,39.719 C378.480,52.121 382.464,66.191 383.461,81.929 C384.566,99.461 382.464,117.489 377.152,136.17 ZM326.766,52.46 C320.401,42.883 310.746,38.101 297.796,37.702 C277.543,37.104 261.465,45.173 249.569,61.907 C237.670,78.642 230.947,102.51 229.398,132.132 C228.290,149.763 230.892,163.336 237.201,172.847 C243.509,182.361 253.304,187.317 266.586,187.714 C283.960,188.412 298.349,182.312 309.750,169.411 C321.148,156.512 328.618,138.258 332.162,114.650 L333.324,106.582 L334.652,92.388 C335.757,74.659 333.129,61.211 326.766,52.46 ZM127.699,68.7 C122.327,62.383 113.977,59.394 102.650,59.42 C88.2,58.603 75.965,63.306 66.542,73.148 C57.116,82.993 50.795,97.363 47.572,116.259 C44.445,134.629 43.79,148.383 43.470,157.523 C43.958,169.125 46.839,177.674 52.113,183.165 C57.386,188.659 64.759,191.537 74.232,191.801 C87.317,192.242 97.791,189.450 105.653,183.429 C113.513,177.410 118.713,168.775 121.254,157.523 L163.880,157.260 C162.219,170.532 157.190,182.288 148.793,192.526 C140.393,202.766 129.457,210.633 115.980,216.124 C102.504,221.616 87.951,224.232 72.328,223.969 C58.265,223.705 46.9,220.784 35.560,215.202 C25.109,209.621 16.883,201.536 10.878,190.944 C4.872,180.354 1.477,168.159 0.697,154.359 C0.13,143.549 1.258,130.102 4.432,114.18 C7.605,97.934 13.269,83.652 21.424,71.171 C29.577,58.692 39.270,48.804 50.502,41.508 C66.322,31.313 84.388,26.392 104.701,26.742 C126.770,27.94 144.274,33.225 157.215,45.133 C170.154,57.44 177.259,73.589 178.529,94.769 L135.755,94.638 C135.755,82.509 133.68,73.632 127.699,68.7 Z"
    />
</svg>